<?xml version="1.0" encoding="iso-8859-1"?>
<!-- Generator: Adobe Illustrator 16.0.0, SVG Export Plug-In . SVG Version: 6.00 Build 0)  -->
<!DOCTYPE svg PUBLIC "-//W3C//DTD SVG 1.1//EN" "http://www.w3.org/Graphics/SVG/1.1/DTD/svg11.dtd">
<svg version="1.1" id="Capa_1" xmlns="http://www.w3.org/2000/svg" xmlns:xlink="http://www.w3.org/1999/xlink" x="0px" y="0px"
	 width="29.336px" height="29.335px" viewBox="0 0 29.336 29.335" style="enable-background:new 0 0 29.336 29.335;"
	 xml:space="preserve">
<g>
	<g>
		<path d="M29.249,10.203c-0.406-1.998-0.146-6.182-7.063-7.284c-5.509-0.88-10.579,1.171-11.625,5.914l6.956-0.038v1.139
			l6.263-0.029c0,0,1.992,2.211,2.511,2.784c0.518,0.573-0.677,1.049-1.165,0.617c-0.49-0.433-1.784-1.98-1.784-1.98l-11.43,0.009
			l0.039,3.182h-1.57v-0.726c-0.645,1.32-2.426,2.901-1.876,3.507c0.667,0.732,1.798,0.763,1.798,0.763s-0.735,1.396-0.404,1.784
			c0.331,0.387,1.251,0.222,1.251,0.222s-0.854,0.615-0.854,1.093c0,0.479,1.442,1.114,1.442,1.114s-0.265,2.646,1.903,2.463
			s2.533-0.796,2.533-0.796l0.644,2.675h8.391l-0.295-5.812C24.908,20.799,30.061,15.207,29.249,10.203z M13.751,13.736
			c-0.563,0-1.021-0.456-1.021-1.021c0-0.563,0.457-1.02,1.021-1.02c0.562,0,1.49,1.02,1.49,1.02S14.312,13.736,13.751,13.736z
			 M22.957,16.541c-0.504,0.517-1.186,0.78-1.98,0.78c-0.098,0-0.193-0.004-0.296-0.012l0.046-0.562
			c0.754,0.062,1.385-0.146,1.827-0.602c0.556-0.563,0.798-1.495,0.685-2.618c-0.063-0.653-0.394-0.976-0.942-0.954
			c-0.787,0.027-1.704,0.727-1.722,1.311l-0.564-0.018c0.027-0.958,1.271-1.821,2.268-1.855c0.862-0.03,1.434,0.516,1.524,1.461
			C23.929,14.766,23.629,15.855,22.957,16.541z"/>
		<rect x="8.517" y="9.795" width="1.94" height="3.901"/>
		<path d="M4.373,9.967L3.939,9.505c-0.894,0.835-1.405,2.018-1.405,3.24c0,1.226,0.513,2.406,1.407,3.242l0.434-0.464
			c-0.768-0.716-1.207-1.729-1.207-2.778C3.168,11.681,3.596,10.694,4.373,9.967z"/>
		<path d="M2.59,8.178L2.151,7.719C0.763,9.05,0,10.835,0,12.744c0,1.91,0.765,3.694,2.151,5.025l0.439-0.457
			c-1.263-1.21-1.958-2.833-1.958-4.568C0.633,11.009,1.328,9.387,2.59,8.178z"/>
		<path d="M3.476,9.069L3.04,8.61c-1.145,1.087-1.774,2.556-1.774,4.135c0,1.58,0.632,3.05,1.777,4.138l0.436-0.46
			c-1.019-0.968-1.58-2.271-1.58-3.678C1.899,11.342,2.46,10.035,3.476,9.069z"/>
		<path d="M5.752,11.285c-0.435,0.364-0.684,0.896-0.684,1.459c0,0.564,0.248,1.097,0.683,1.458l0.407-0.485
			c-0.579-0.483-0.579-1.461,0-1.944L5.752,11.285z"/>
		<path d="M5.267,10.866l-0.426-0.468c-0.661,0.6-1.04,1.455-1.04,2.347c0,0.895,0.38,1.748,1.041,2.35l0.426-0.471
			c-0.528-0.479-0.833-1.164-0.833-1.879C4.434,12.031,4.739,11.348,5.267,10.866z"/>
		<circle cx="7.144" cy="12.716" r="0.73"/>
	</g>
</g>
<g>
</g>
<g>
</g>
<g>
</g>
<g>
</g>
<g>
</g>
<g>
</g>
<g>
</g>
<g>
</g>
<g>
</g>
<g>
</g>
<g>
</g>
<g>
</g>
<g>
</g>
<g>
</g>
<g>
</g>
</svg>
